solid OpenSCAD_Model
  facet normal 1 -0 0
    outer loop
      vertex 125 -75 15
      vertex 125 75 -15
      vertex 125 75 15
    endloop
  endfacet
  facet normal 1 0 0
    outer loop
      vertex 125 75 -15
      vertex 125 -75 15
      vertex 125 -75 -15
    endloop
  endfacet
  facet normal 0 0 1
    outer loop
      vertex 125 75 15
      vertex 124 74 15
      vertex 125 -75 15
    endloop
  endfacet
  facet normal 0 0 1
    outer loop
      vertex 125 75 15
      vertex -124 74 15
      vertex 124 74 15
    endloop
  endfacet
  facet normal 0 0 1
    outer loop
      vertex -124 74 15
      vertex -125 75 15
      vertex -124 -74 15
    endloop
  endfacet
  facet normal -0 0 1
    outer loop
      vertex -125 75 15
      vertex -124 74 15
      vertex 125 75 15
    endloop
  endfacet
  facet normal -0 0 1
    outer loop
      vertex 124 -74 15
      vertex 125 -75 15
      vertex 124 74 15
    endloop
  endfacet
  facet normal -0 0 1
    outer loop
      vertex -124 -74 15
      vertex 125 -75 15
      vertex 124 -74 15
    endloop
  endfacet
  facet normal 0 0 1
    outer loop
      vertex -124 -74 15
      vertex -125 -75 15
      vertex 125 -75 15
    endloop
  endfacet
  facet normal 0 0 1
    outer loop
      vertex -125 -75 15
      vertex -124 -74 15
      vertex -125 75 15
    endloop
  endfacet
  facet normal 0 0 -1
    outer loop
      vertex -125 -75 -15
      vertex 125 75 -15
      vertex 125 -75 -15
    endloop
  endfacet
  facet normal -0 0 -1
    outer loop
      vertex 125 75 -15
      vertex -125 -75 -15
      vertex -125 75 -15
    endloop
  endfacet
  facet normal -1 0 0
    outer loop
      vertex -125 -75 -15
      vertex -125 75 15
      vertex -125 75 -15
    endloop
  endfacet
  facet normal -1 -0 0
    outer loop
      vertex -125 75 15
      vertex -125 -75 -15
      vertex -125 -75 15
    endloop
  endfacet
  facet normal 0 1 -0
    outer loop
      vertex 125 75 -15
      vertex -125 75 15
      vertex 125 75 15
    endloop
  endfacet
  facet normal 0 1 0
    outer loop
      vertex -125 75 15
      vertex 125 75 -15
      vertex -125 75 -15
    endloop
  endfacet
  facet normal 0 -1 0
    outer loop
      vertex -125 -75 -15
      vertex 125 -75 15
      vertex -125 -75 15
    endloop
  endfacet
  facet normal 0 -1 -0
    outer loop
      vertex 125 -75 15
      vertex -125 -75 -15
      vertex 125 -75 -15
    endloop
  endfacet
  facet normal -1 0 0
    outer loop
      vertex 124 -74 -13
      vertex 124 74 15
      vertex 124 74 -13
    endloop
  endfacet
  facet normal -1 -0 0
    outer loop
      vertex 124 74 15
      vertex 124 -74 -13
      vertex 124 -74 15
    endloop
  endfacet
  facet normal -0 0 1
    outer loop
      vertex -124 74 -13
      vertex 124 -74 -13
      vertex 124 74 -13
    endloop
  endfacet
  facet normal 0 0 1
    outer loop
      vertex 124 -74 -13
      vertex -124 74 -13
      vertex -124 -74 -13
    endloop
  endfacet
  facet normal 1 -0 0
    outer loop
      vertex -124 -74 15
      vertex -124 74 -13
      vertex -124 74 15
    endloop
  endfacet
  facet normal 1 0 0
    outer loop
      vertex -124 74 -13
      vertex -124 -74 15
      vertex -124 -74 -13
    endloop
  endfacet
  facet normal 0 -1 0
    outer loop
      vertex -124 74 -13
      vertex 124 74 15
      vertex -124 74 15
    endloop
  endfacet
  facet normal 0 -1 -0
    outer loop
      vertex 124 74 15
      vertex -124 74 -13
      vertex 124 74 -13
    endloop
  endfacet
  facet normal 0 1 -0
    outer loop
      vertex 124 -74 -13
      vertex -124 -74 15
      vertex 124 -74 15
    endloop
  endfacet
  facet normal 0 1 0
    outer loop
      vertex -124 -74 15
      vertex 124 -74 -13
      vertex -124 -74 -13
    endloop
  endfacet
endsolid OpenSCAD_Model
